<svg xmlns="http://www.w3.org/2000/svg" width="600" height="600" viewBox="0 0 600 600" data-fg-d3bl6="0.8:2.4185:/src/app/App.tsx:74:7:2801:829:e:svg" id="color-wheel-svg"><circle cx="300" cy="300" r="80" fill="white" data-fg-d3bl8="0.8:2.4185:/src/app/App.tsx:81:9:2962:113:e:circle"/><path d="&#10;      M 300 220&#10;      L 300 140&#10;      A 160 160 0 0 1 380 161.43593539448983&#10;      L 340 230.71796769724492&#10;      A 80 80 0 0 0 300 220&#10;      Z&#10;    " fill="#FF0000" stroke="white" stroke-width="2" data-fg-d3bl11="0.8:2.4185:/src/app/App.tsx:95:13:3385:207:e:path"/><path d="&#10;      M 340 230.71796769724492&#10;      L 380 161.43593539448983&#10;      A 160 160 0 0 1 438.5640646055102 220&#10;      L 369.2820323027551 260&#10;      A 80 80 0 0 0 340 230.71796769724492&#10;      Z&#10;    " fill="#FF8000" stroke="white" stroke-width="2" data-fg-d3bl11="0.8:2.4185:/src/app/App.tsx:95:13:3385:207:e:path"/><path d="&#10;      M 369.2820323027551 260&#10;      L 438.5640646055102 220&#10;      A 160 160 0 0 1 460 300&#10;      L 380 300&#10;      A 80 80 0 0 0 369.2820323027551 260&#10;      Z&#10;    " fill="#FFFF00" stroke="white" stroke-width="2" data-fg-d3bl11="0.8:2.4185:/src/app/App.tsx:95:13:3385:207:e:path"/><path d="&#10;      M 380 300&#10;      L 460 300&#10;      A 160 160 0 0 1 438.5640646055102 380&#10;      L 369.2820323027551 340&#10;      A 80 80 0 0 0 380 300&#10;      Z&#10;    " fill="#80FF00" stroke="white" stroke-width="2" data-fg-d3bl11="0.8:2.4185:/src/app/App.tsx:95:13:3385:207:e:path"/><path d="&#10;      M 369.2820323027551 340&#10;      L 438.5640646055102 380&#10;      A 160 160 0 0 1 380 438.56406460551017&#10;      L 340 369.28203230275506&#10;      A 80 80 0 0 0 369.2820323027551 340&#10;      Z&#10;    " fill="#00FF00" stroke="white" stroke-width="2" data-fg-d3bl11="0.8:2.4185:/src/app/App.tsx:95:13:3385:207:e:path"/><path d="&#10;      M 340 369.28203230275506&#10;      L 380 438.56406460551017&#10;      A 160 160 0 0 1 300 460&#10;      L 300 380&#10;      A 80 80 0 0 0 340 369.28203230275506&#10;      Z&#10;    " fill="#00FF80" stroke="white" stroke-width="2" data-fg-d3bl11="0.8:2.4185:/src/app/App.tsx:95:13:3385:207:e:path"/><path d="&#10;      M 300 380&#10;      L 300 460&#10;      A 160 160 0 0 1 220.00000000000003 438.5640646055102&#10;      L 260 369.2820323027551&#10;      A 80 80 0 0 0 300 380&#10;      Z&#10;    " fill="#00FFFF" stroke="white" stroke-width="2" data-fg-d3bl11="0.8:2.4185:/src/app/App.tsx:95:13:3385:207:e:path"/><path d="&#10;      M 260 369.2820323027551&#10;      L 220.00000000000003 438.5640646055102&#10;      A 160 160 0 0 1 161.4359353944898 380&#10;      L 230.7179676972449 340&#10;      A 80 80 0 0 0 260 369.2820323027551&#10;      Z&#10;    " fill="#0080FF" stroke="white" stroke-width="2" data-fg-d3bl11="0.8:2.4185:/src/app/App.tsx:95:13:3385:207:e:path"/><path d="&#10;      M 230.7179676972449 340&#10;      L 161.4359353944898 380&#10;      A 160 160 0 0 1 140 300&#10;      L 220 300&#10;      A 80 80 0 0 0 230.7179676972449 340&#10;      Z&#10;    " fill="#0000FF" stroke="white" stroke-width="2" data-fg-d3bl11="0.8:2.4185:/src/app/App.tsx:95:13:3385:207:e:path"/><path d="&#10;      M 220 300&#10;      L 140 300&#10;      A 160 160 0 0 1 161.43593539448983 220&#10;      L 230.71796769724492 260&#10;      A 80 80 0 0 0 220 300&#10;      Z&#10;    " fill="#8000FF" stroke="white" stroke-width="2" data-fg-d3bl11="0.8:2.4185:/src/app/App.tsx:95:13:3385:207:e:path"/><path d="&#10;      M 230.71796769724492 260&#10;      L 161.43593539448983 220&#10;      A 160 160 0 0 1 219.99999999999994 161.43593539448986&#10;      L 259.99999999999994 230.71796769724494&#10;      A 80 80 0 0 0 230.71796769724492 260&#10;      Z&#10;    " fill="#FF00FF" stroke="white" stroke-width="2" data-fg-d3bl11="0.8:2.4185:/src/app/App.tsx:95:13:3385:207:e:path"/><path d="&#10;      M 259.99999999999994 230.71796769724494&#10;      L 219.99999999999994 161.43593539448986&#10;      A 160 160 0 0 1 299.99999999999994 140&#10;      L 300 220&#10;      A 80 80 0 0 0 259.99999999999994 230.71796769724494&#10;      Z&#10;    " fill="#FF0080" stroke="white" stroke-width="2" data-fg-d3bl11="0.8:2.4185:/src/app/App.tsx:95:13:3385:207:e:path"/></svg>