<svg width="1835" height="1024" viewBox="0 0 1835 1024" fill="none" xmlns="http://www.w3.org/2000/svg">
<rect x="262.143" width="262.143" height="755.81" fill="#FFFF00"/>
<rect x="786.428" width="262.143" height="755.81" fill="#00FF00"/>
<rect width="262.143" height="755.81" fill="white"/>
<rect x="524.286" width="262.143" height="755.81" fill="#00FFFF"/>
<rect x="1310.71" width="262.143" height="755.81" fill="#FF0000"/>
<rect x="1049.07" y="0.5" width="261.143" height="754.81" fill="#FF00FF" stroke="#FF00FF"/>
<rect x="1572.86" width="262.143" height="755.81" fill="#0000FF"/>
<rect x="262.143" y="755.81" width="262.143" height="67.0476" fill="black"/>
<rect x="786.428" y="755.81" width="262.143" height="67.0476" fill="black"/>
<rect y="755.81" width="262.143" height="67.0476" fill="#0000FF"/>
<rect y="822.857" width="341.395" height="201.143" fill="#005157"/>
<rect x="682.791" y="822.857" width="341.395" height="201.143" fill="#00008F"/>
<rect x="341.395" y="822.857" width="341.395" height="201.143" fill="white"/>
<rect x="1024.19" y="822.857" width="341.395" height="201.143" fill="#666666"/>
<rect x="1603.34" y="822.857" width="231.661" height="201.143" fill="black"/>
<rect x="1365.58" y="822.857" width="79.2525" height="201.143" fill="#3D3D3D"/>
<rect x="1444.83" y="822.857" width="79.2525" height="201.143" fill="#7A7A7A"/>
<rect x="1524.09" y="822.857" width="79.2525" height="201.143" fill="#A8A8A8"/>
<rect x="524.286" y="755.81" width="262.143" height="67.0476" fill="#FF00FF"/>
<rect x="1311.21" y="756.31" width="261.143" height="66.0476" fill="black" stroke="black"/>
<rect x="1049.07" y="756.31" width="261.143" height="66.0476" fill="#00FFFF" stroke="#00FFFF"/>
<rect x="1572.86" y="755.81" width="262.143" height="67.0476" fill="white"/>
</svg>
