<svg width="34" height="25" viewBox="0 0 34 25" fill="none" xmlns="http://www.w3.org/2000/svg">
<path d="M17.3076 1.92285H28.8457C29.3743 1.92285 29.862 2.09564 30.2588 2.38477H30.3076V2.4209C30.8798 2.86031 31.25 3.54992 31.25 4.32715V11.5381H33.1729V13.4619H31.25V20.6729C31.25 21.4499 30.8796 22.1387 30.3076 22.5781V22.6152H30.2588C29.862 22.9044 29.3743 23.0771 28.8457 23.0771H17.3076V25H15.3848V23.0771H4.32715C3.78674 23.0771 3.28917 22.8967 2.8877 22.5957H2.88477V22.5928C2.30181 22.1541 1.92285 21.4586 1.92285 20.6729V13.4619H0V11.5381H1.92285V4.32715C1.92285 3.54998 2.2931 2.86032 2.86523 2.4209V2.38477H2.91406C3.3109 2.09558 3.79853 1.92285 4.32715 1.92285H15.3848V0H17.3076V1.92285ZM3.8457 21.6348H9.13477V17.7881H3.8457V21.6348ZM10.3369 21.6348H15.8652V17.7881H10.3369V21.6348ZM16.8271 21.6348H22.5771V17.7881H16.8271V21.6348ZM23.5771 21.6152H29.3076V17.7881H23.5771V21.6152ZM3.8457 16.8271H9.13477V12.9805H3.8457V16.8271ZM10.3369 16.8271H15.8652V12.9805H10.3369V16.8271ZM16.8271 16.8271H22.5771V12.9805H16.8271V16.8271ZM23.5771 16.8271H29.3076V12.9805H23.5771V16.8271ZM3.8457 12.0195H9.13477V8.19238H3.8457V12.0195ZM16.8271 12.0195H22.5771V8.19238H16.8271V12.0195ZM23.5771 12.0195H29.3076V8.19238H23.5771V12.0195ZM3.86523 7.19238H9.13477V3.38477H3.86523V7.19238ZM10.3369 7.19238H15.8652V3.38477H10.3369V7.19238ZM16.8271 7.19238H22.5771V3.38477H16.8271V7.19238ZM23.5771 7.19238H29.3076V3.38477H23.5771V7.19238Z" fill="#B4BCCC"/>
</svg>
