<svg width="18" height="18" viewBox="0 0 18 18" fill="none" xmlns="http://www.w3.org/2000/svg">
<path d="M17.789 1.70793L6.26952 17.7067C6.20266 17.7997 6.12325 17.8735 6.03585 17.9238C5.94845 17.9741 5.85476 18 5.76014 18C5.66553 18 5.57184 17.9741 5.48444 17.9238C5.39704 17.8735 5.31763 17.7997 5.25077 17.7067L0.210991 10.7073C0.0758957 10.5196 0 10.2652 0 9.99981C0 9.73447 0.0758957 9.47999 0.210991 9.29236C0.346086 9.10474 0.529315 8.99933 0.720368 8.99933C0.911422 8.99933 1.09465 9.10474 1.22975 9.29236L5.76014 15.5856L16.7703 0.293034C16.9053 0.105407 17.0886 -1.97697e-09 17.2796 0C17.4707 1.97697e-09 17.6539 0.105407 17.789 0.293034C17.9241 0.48066 18 0.735137 18 1.00048C18 1.26583 17.9241 1.5203 17.789 1.70793Z" fill="#FAFCFF"/>
</svg>
